<svg width="300" height="42" viewBox="0 0 300 42" fill="none" xmlns="http://www.w3.org/2000/svg">
<!-- QENEX LAB Logo - Light Mode -->
<!-- Q -->
<path d="M18 30H6V18H18V30Z" fill="#CFCECD"/>
<path d="M24 36H0V6H24V36ZM6 30H18V12H6V30ZM24 42H12V36H24V42Z" fill="#0099CC"/>
<!-- E -->
<path d="M48 24V30H30V24H48Z" fill="#CFCECD"/>
<path d="M48 24H30V30H48V36H24V6H48V24ZM30 18H42V12H30V18Z" fill="#0099CC"/>
<!-- N -->
<path d="M72 36H60V18H72V36Z" fill="#CFCECD"/>
<path d="M72 12H60V36H54V6H72V12ZM78 36H72V12H78V36Z" fill="#0099CC"/>
<!-- E -->
<path d="M102 24V30H84V24H102Z" fill="#CFCECD"/>
<path d="M102 24H84V30H102V36H78V6H102V24ZM84 18H96V12H84V18Z" fill="#0099CC"/>
<!-- X -->
<path d="M126 24V18H114V12H126V18H120V24H126V30H120V24H114V30H108V24H114V18H108V12H114V18H120V24H126Z" fill="#CFCECD"/>
<path d="M126 6V12H120V18H126V30H120V36H114V30H120V24H114V18H120V12H114V6H120V12H126V6H132V12H126V18H132V30H126V36H132V42H126V36H120V30H126V24H120V18H126V12H120V6H126ZM114 36V30H108V24H114V18H108V12H114V6H108V12H102V18H108V24H102V30H108V36H114Z" fill="#0099CC"/>
<!-- Space -->
<!-- L -->
<path d="M162 36H150V18H162V36Z" fill="#CFCECD"/>
<path d="M150 30V6H156V30H168V36H150V30Z" fill="#7744BB"/>
<!-- A -->
<path d="M192 30H180V18H192V30Z" fill="#CFCECD"/>
<path d="M192 12H180V30H192V36H174V6H198V36H192V12ZM180 18H192V24H180V18Z" fill="#7744BB"/>
<!-- B -->
<path d="M222 30H210V18H222V30Z" fill="#CFCECD"/>
<path d="M222 12H210V18H222V24H216V30H222V36H204V6H222V12ZM210 24H216V18H210V24Z" fill="#7744BB"/>
</svg>
