<svg width="300" height="42" viewBox="0 0 300 42" fill="none" xmlns="http://www.w3.org/2000/svg">
<!-- QENEX LAB Logo - Ornate Light Mode -->
<!-- "QENEX" in darker cyan -->
<!-- Q -->
<rect x="0" y="6" width="24" height="30" rx="2" fill="#0099CC"/>
<rect x="6" y="12" width="12" height="18" fill="#F5F5F5"/>
<rect x="15" y="30" width="12" height="6" fill="#0099CC"/>
<!-- E -->
<rect x="30" y="6" width="24" height="6" fill="#0099CC"/>
<rect x="30" y="18" width="18" height="6" fill="#0099CC"/>
<rect x="30" y="30" width="24" height="6" fill="#0099CC"/>
<rect x="30" y="6" width="6" height="30" fill="#0099CC"/>
<!-- N -->
<rect x="60" y="6" width="6" height="30" fill="#0099CC"/>
<rect x="66" y="12" width="6" height="6" fill="#0099CC"/>
<rect x="72" y="18" width="6" height="6" fill="#0099CC"/>
<rect x="78" y="6" width="6" height="30" fill="#0099CC"/>
<!-- E -->
<rect x="90" y="6" width="24" height="6" fill="#0099CC"/>
<rect x="90" y="18" width="18" height="6" fill="#0099CC"/>
<rect x="90" y="30" width="24" height="6" fill="#0099CC"/>
<rect x="90" y="6" width="6" height="30" fill="#0099CC"/>
<!-- X -->
<rect x="120" y="6" width="6" height="6" fill="#0099CC"/>
<rect x="138" y="6" width="6" height="6" fill="#0099CC"/>
<rect x="126" y="12" width="6" height="6" fill="#0099CC"/>
<rect x="132" y="12" width="6" height="6" fill="#0099CC"/>
<rect x="129" y="18" width="6" height="6" fill="#0099CC"/>
<rect x="126" y="24" width="6" height="6" fill="#0099CC"/>
<rect x="132" y="24" width="6" height="6" fill="#0099CC"/>
<rect x="120" y="30" width="6" height="6" fill="#0099CC"/>
<rect x="138" y="30" width="6" height="6" fill="#0099CC"/>
<!-- "LAB" in purple/violet -->
<!-- L -->
<rect x="162" y="6" width="6" height="30" fill="#7744BB"/>
<rect x="162" y="30" width="24" height="6" fill="#7744BB"/>
<!-- A -->
<rect x="192" y="6" width="24" height="30" rx="2" fill="#7744BB"/>
<rect x="198" y="12" width="12" height="12" fill="#F5F5F5"/>
<rect x="198" y="30" width="12" height="6" fill="#F5F5F5"/>
<!-- B -->
<rect x="222" y="6" width="24" height="30" rx="2" fill="#7744BB"/>
<rect x="228" y="12" width="12" height="6" fill="#F5F5F5"/>
<rect x="228" y="24" width="12" height="6" fill="#F5F5F5"/>
</svg>
